<svg width="32" height="32" viewBox="0 0 32 32" fill="none" xmlns="http://www.w3.org/2000/svg">
<g clip-path="url(#clip0_35_311)">
<path d="M22.7807 27.4784V24.8815C22.7807 23.5039 22.2335 22.1828 21.2595 21.2088C20.2854 20.2347 18.9643 19.6875 17.5868 19.6875H7.19885C5.82132 19.6875 4.50022 20.2347 3.52616 21.2088C2.5521 22.1828 2.00488 23.5039 2.00488 24.8815V27.4784" stroke="black" stroke-width="2" stroke-linecap="round" stroke-linejoin="round"/>
<path d="M12.3932 14.4935C15.2617 14.4935 17.5872 12.1681 17.5872 9.29956C17.5872 6.43101 15.2617 4.10559 12.3932 4.10559C9.52464 4.10559 7.19922 6.43101 7.19922 9.29956C7.19922 12.1681 9.52464 14.4935 12.3932 14.4935Z" stroke="black" stroke-width="2" stroke-linecap="round" stroke-linejoin="round"/>
<path d="M30.5713 27.4784V24.8814C30.5704 23.7306 30.1874 22.6127 29.4823 21.7031C28.7772 20.7936 27.7901 20.144 26.6758 19.8563" stroke="black" stroke-width="2" stroke-linecap="round" stroke-linejoin="round"/>
<path d="M21.4824 4.27441C22.5997 4.56047 23.5899 5.21024 24.2971 6.12127C25.0042 7.03231 25.3881 8.15279 25.3881 9.30607C25.3881 10.4593 25.0042 11.5798 24.2971 12.4909C23.5899 13.4019 22.5997 14.0517 21.4824 14.3377" stroke="black" stroke-width="2" stroke-linecap="round" stroke-linejoin="round"/>
</g>
<defs>
<clipPath id="clip0_35_311">
<rect width="31.1638" height="31.1638" fill="white" transform="translate(0.706055 0.210144)"/>
</clipPath>
</defs>
</svg>
