<svg width="58" height="57" viewBox="0 0 58 57" fill="none" xmlns="http://www.w3.org/2000/svg">
<path d="M38.0007 28.0557C38.0007 30.3763 37.0525 32.6019 35.3646 34.2428C33.6768 35.8838 31.3876 36.8057 29.0007 36.8057C26.6137 36.8057 24.3246 35.8838 22.6367 34.2428C20.9489 32.6019 20.0007 30.3763 20.0007 28.0557C20.0007 27.5569 20.0547 27.0698 20.1477 26.5973H17.0007V38.2552C17.0007 39.0661 17.6757 39.7223 18.5097 39.7223H39.4947C39.8944 39.7216 40.2774 39.5667 40.5598 39.2916C40.8421 39.0166 41.0007 38.6438 41.0007 38.2552V26.5973H37.8537C37.9467 27.0698 38.0007 27.5569 38.0007 28.0557ZM29.0007 33.889C29.7888 33.8888 30.5692 33.7377 31.2972 33.4443C32.0253 33.1509 32.6868 32.7209 33.2439 32.179C33.8011 31.637 34.243 30.9937 34.5444 30.2857C34.8458 29.5778 35.0009 28.819 35.0007 28.0527C35.0005 27.2865 34.8451 26.5278 34.5433 25.82C34.2415 25.1121 33.7993 24.469 33.2418 23.9274C32.6844 23.3857 32.0227 22.9561 31.2945 22.663C30.5663 22.37 29.7858 22.2192 28.9977 22.2194C27.406 22.2198 25.8796 22.8349 24.7544 23.9294C23.6292 25.0239 22.9973 26.5082 22.9977 28.0557C22.9981 29.6031 23.6308 31.0871 24.7565 32.1811C25.8823 33.275 27.409 33.8894 29.0007 33.889ZM36.2007 21.9307H39.7977C40.0367 21.9307 40.2659 21.8386 40.4351 21.6746C40.6044 21.5105 40.6999 21.288 40.7007 21.0557V17.5586C40.7007 17.3257 40.6055 17.1024 40.4362 16.9378C40.2669 16.7732 40.0372 16.6807 39.7977 16.6807H36.2007C35.9612 16.6807 35.7315 16.7732 35.5622 16.9378C35.3928 17.1024 35.2977 17.3257 35.2977 17.5586V21.0557C35.3007 21.5369 35.7057 21.9307 36.2007 21.9307ZM29.0007 0.0556641C21.3624 0.0556641 14.0371 3.00565 8.63601 8.25667C3.23496 13.5077 0.200684 20.6296 0.200684 28.0557C0.200684 35.4817 3.23496 42.6036 8.63601 47.8547C14.0371 53.1057 21.3624 56.0557 29.0007 56.0557C32.7828 56.0557 36.5278 55.3314 40.022 53.9243C43.5161 52.5172 46.691 50.4547 49.3654 47.8547C52.0397 45.2546 54.1611 42.1679 55.6084 38.7708C57.0558 35.3737 57.8007 31.7327 57.8007 28.0557C57.8007 24.3787 57.0558 20.7376 55.6084 17.3405C54.1611 13.9434 52.0397 10.8567 49.3654 8.25667C46.691 5.65663 43.5161 3.59417 40.022 2.18704C36.5278 0.779905 32.7828 0.0556641 29.0007 0.0556641ZM44.0007 39.3986C44.0007 41.1807 42.5007 42.639 40.6677 42.639H17.3337C15.5007 42.639 14.0007 41.1807 14.0007 39.3986V16.7127C14.0007 14.9307 15.5007 13.4723 17.3337 13.4723H40.6677C42.5007 13.4723 44.0007 14.9307 44.0007 16.7127V39.3986Z" fill="black"/>
</svg>
