<svg width="36" height="41" viewBox="0 0 36 41" fill="none" xmlns="http://www.w3.org/2000/svg">
<path d="M4 41H32C33.0609 41 34.0783 40.5786 34.8284 39.8284C35.5786 39.0783 36 38.0609 36 37V19C36.0015 18.7368 35.9511 18.4759 35.8515 18.2322C35.752 17.9885 35.6054 17.7669 35.42 17.58L19.42 1.58C19.0453 1.2075 18.5384 0.998413 18.01 0.998413C17.4816 0.998413 16.9747 1.2075 16.6 1.58L0.6 17.58C0.411024 17.7652 0.260684 17.9861 0.157691 18.2299C0.0546973 18.4736 0.0010985 18.7354 0 19V37C0 38.0609 0.421427 39.0783 1.17157 39.8284C1.92172 40.5786 2.93913 41 4 41ZM14 37V27H22V37H14ZM4 19.82L18 5.82L32 19.82V37H26V27C26 25.9391 25.5786 24.9217 24.8284 24.1716C24.0783 23.4214 23.0609 23 22 23H14C12.9391 23 11.9217 23.4214 11.1716 24.1716C10.4214 24.9217 10 25.9391 10 27V37H4V19.82Z" fill="black"/>
</svg>
