<svg width="56" height="54" viewBox="0 0 56 54" fill="none" xmlns="http://www.w3.org/2000/svg">
<path d="M28 0.65625C13.0207 0.65625 0.875 12.4646 0.875 27.0278C0.875 41.591 13.0207 53.3993 28 53.3993C42.9793 53.3993 55.125 41.591 55.125 27.0278C55.125 12.4646 42.9793 0.65625 28 0.65625ZM41.0357 20.535C41.0539 20.8116 41.0539 21.1001 41.0539 21.3826C41.0539 30.024 34.2848 39.9781 21.915 39.9781C18.1006 39.9781 14.5646 38.9008 11.5857 37.0466C12.1307 37.1055 12.6514 37.129 13.2084 37.129C16.3568 37.129 19.251 36.093 21.5578 34.3388C18.6031 34.2799 16.1207 32.3963 15.273 29.8062C16.3084 29.9534 17.2408 29.9534 18.3064 29.6885C16.7851 29.388 15.4176 28.5847 14.4364 27.415C13.4552 26.2454 12.9207 24.7815 12.9238 23.2722V23.1898C13.8139 23.6784 14.8613 23.9786 15.9572 24.0198C15.036 23.4228 14.2804 22.6141 13.7576 21.6653C13.2348 20.7166 12.9609 19.657 12.9602 18.5806C12.9602 17.3621 13.2871 16.2496 13.8744 15.2842C15.5631 17.3053 17.6703 18.9582 20.0591 20.1357C22.4478 21.3131 25.0647 21.9887 27.7396 22.1184C26.7891 17.6741 30.2039 14.0775 34.309 14.0775C36.2465 14.0775 37.9902 14.8663 39.2193 16.1377C40.7391 15.8611 42.1922 15.3078 43.4879 14.5661C42.9854 16.0789 41.9318 17.3563 40.5332 18.1627C41.8895 18.0214 43.1973 17.6565 44.4082 17.1443C43.4939 18.4511 42.3496 19.6108 41.0357 20.535Z" fill="black"/>
</svg>
